<mxfile host="app.diagrams.net" modified="2021-10-27T09:56:39.875Z" agent="5.0 (Windows NT 10.0; Win64; x64) AppleWebKit/537.36 (KHTML, like Gecko) Chrome/95.0.4638.54 Safari/537.36" etag="xOzDz3DYiRaZ16Oj5zHC" version="15.5.9" type="github">
  <diagram id="hYWCdpK7AU_qtLjTbJB7" name="第 1 页">
    <mxGraphModel dx="1422" dy="762" grid="1" gridSize="10" guides="1" tooltips="1" connect="1" arrows="1" fold="1" page="1" pageScale="1" pageWidth="1169" pageHeight="1654" math="0" shadow="0">
      <root>
        <mxCell id="0" />
        <mxCell id="1" parent="0" />
        <mxCell id="XMPLlu9oA2GSyZVibXZA-6" value="pointer" style="rounded=1;whiteSpace=wrap;html=1;" vertex="1" parent="1">
          <mxGeometry x="150" y="420" width="260" height="170" as="geometry" />
        </mxCell>
        <mxCell id="XMPLlu9oA2GSyZVibXZA-7" value="" style="group" vertex="1" connectable="0" parent="1">
          <mxGeometry x="150" y="120" width="260" height="170" as="geometry" />
        </mxCell>
        <mxCell id="XMPLlu9oA2GSyZVibXZA-1" value="" style="rounded=1;whiteSpace=wrap;html=1;" vertex="1" parent="XMPLlu9oA2GSyZVibXZA-7">
          <mxGeometry width="260" height="170" as="geometry" />
        </mxCell>
        <mxCell id="XMPLlu9oA2GSyZVibXZA-2" value="range" style="rounded=1;whiteSpace=wrap;html=1;rotation=0;" vertex="1" parent="XMPLlu9oA2GSyZVibXZA-7">
          <mxGeometry x="70" y="80" width="120" height="60" as="geometry" />
        </mxCell>
        <mxCell id="XMPLlu9oA2GSyZVibXZA-4" value="selection" style="text;html=1;strokeColor=none;fillColor=none;align=center;verticalAlign=middle;whiteSpace=wrap;rounded=0;" vertex="1" parent="XMPLlu9oA2GSyZVibXZA-7">
          <mxGeometry x="100" y="20" width="60" height="30" as="geometry" />
        </mxCell>
      </root>
    </mxGraphModel>
  </diagram>
</mxfile>
